<?xml version="1.0" standalone="no"?>
<!DOCTYPE svg PUBLIC "-//W3C//DTD SVG 1.1//EN" "http://www.w3.org/Graphics/SVG/1.1/DTD/svg11.dtd" >
<svg xmlns="http://www.w3.org/2000/svg" xmlns:xlink="http://www.w3.org/1999/xlink" version="1.1">
<metadata></metadata>
<defs>
<font id="evening_regularregular" horiz-adv-x="1480" >
<font-face units-per-em="2048" ascent="1530" descent="-518" />
<missing-glyph horiz-adv-x="491" />
<glyph horiz-adv-x="0" />
<glyph horiz-adv-x="682" />
<glyph unicode=" "  horiz-adv-x="491" />
<glyph unicode="&#x09;" horiz-adv-x="491" />
<glyph unicode="&#xa0;" horiz-adv-x="491" />
<glyph unicode="!" horiz-adv-x="411" d="M141 0v221h129v-221h-129zM160 1509h92l-19 -1060h-55z" />
<glyph unicode="&#x22;" horiz-adv-x="622" d="M123 1511h106l-24 -434h-58zM393 1511h107l-25 -434h-57z" />
<glyph unicode="#" horiz-adv-x="1388" d="M123 459v67h313l43 418h-319v68h325l45 461l68 -7l-45 -454h338l45 461l68 -7l-46 -454h308v-68h-314l-41 -418h318v-67h-326l-51 -465l-68 6l52 459h-338l-52 -465l-67 6l51 459h-307zM506 526h336l43 418h-338z" />
<glyph unicode="$" horiz-adv-x="958" d="M154 35l24 45q86 -59 223 -64l41 701q-49 31 -72 47t-63.5 46t-60.5 53t-43.5 55.5t-33 67.5t-9.5 75q0 81 27 141.5t74 94.5t97 51.5t109 23.5l6 195l68 -2l-13 -191q134 -3 230 -55l-29 -55q-81 64 -203 67l-37 -573q59 -37 93.5 -61.5t82.5 -67t74.5 -81.5t46 -94.5 t19.5 -117.5q0 -95 -30 -165t-81.5 -109t-109 -58t-123.5 -22l-10 -261l-68 3l16 258q-170 8 -245 53zM215 1065q0 -45 17 -84t54 -74.5t70.5 -60.5t89.5 -60l19 543q-47 -4 -87 -17.5t-79 -41.5t-61.5 -80.5t-22.5 -124.5zM461 16q128 8 207.5 84.5t79.5 212.5 q0 53 -15 101t-37.5 84t-59 72.5t-69.5 61.5t-80 56z" />
<glyph unicode="%" horiz-adv-x="1961" d="M123 1079q0 49 6 96t20 99t40.5 95.5t63.5 79t93 55.5t125 20q81 0 144 -29.5t100 -75t60.5 -107t31.5 -117.5t8 -116q0 -254 -96 -391t-248 -137q-153 0 -250.5 137t-97.5 391zM193 1079q0 -224 71.5 -350.5t206.5 -126.5q133 0 201.5 125.5t68.5 351.5q0 71 -6.5 126.5 t-24.5 107.5t-47.5 85.5t-78 54t-113.5 20.5q-82 0 -138.5 -29.5t-86 -86t-41.5 -123t-12 -155.5zM643 37l606 1464l64 -26l-606 -1465zM1147 516q0 49 6 96t20 99t40.5 95.5t63.5 79t93 55.5t125 20q81 0 144 -29.5t100 -75t60.5 -107t31.5 -117.5t8 -116q0 -254 -96 -391 t-248 -137q-153 0 -250.5 137t-97.5 391zM1217 516q0 -224 71.5 -350.5t206.5 -126.5q133 0 201.5 125.5t68.5 351.5q0 71 -6.5 126.5t-24.5 107t-47.5 85.5t-78 54t-113.5 20q-66 0 -115.5 -20t-80.5 -54t-49.5 -85.5t-25.5 -107t-7 -126.5z" />
<glyph unicode="&#x26;" horiz-adv-x="1024" d="M68 442q0 67 22 127.5t54.5 104.5t84.5 88t96.5 72t106.5 63l-113 174q-70 127 -61.5 229t86 166t195.5 64q127 0 197.5 -72.5t70.5 -197.5q0 -64 -25 -120t-73 -102.5t-99 -81.5t-121 -73l414 -639q35 43 65.5 93.5t53 100t36.5 85t28.5 76.5t17.5 48l51 -24 q-5 -10 -40.5 -91.5t-83 -167t-105.5 -155.5l133 -209h-88l-94 154q-172 -172 -396 -172q-66 0 -136 28t-133 81.5t-103.5 145t-40.5 205.5zM135 442q0 -176 108 -295.5t251 -119.5q204 0 362 161l-407 678q-70 -44 -118 -81t-97 -89t-74 -116t-25 -138zM317.5 1245 q7.5 -74 49.5 -153l106 -174q52 31 88 55t76.5 58.5t64.5 66.5t40 74t16 88q0 125 -55 179t-164 54q-74 0 -127.5 -32.5t-77.5 -87t-16.5 -128.5z" />
<glyph unicode="'" horiz-adv-x="352" d="M123 1511h106l-24 -434h-58z" />
<glyph unicode="(" horiz-adv-x="552" d="M154 506q0 125 20 263.5t48.5 249t64 218t61 169.5t45.5 105l37 -18q-25 -57 -52 -139.5t-61 -211.5t-55.5 -297.5t-21.5 -338.5t21.5 -341.5t55 -303.5t61.5 -219t52 -142l-37 -18q-26 55 -60.5 149t-77.5 235t-72 313.5t-29 326.5z" />
<glyph unicode=")" horiz-adv-x="552" d="M123 -500q24 55 52 142t61.5 219t55 303.5t21.5 341.5t-21.5 338.5t-55.5 297.5t-61 211.5t-52 139.5l37 18q20 -43 45.5 -105t61 -169.5t64 -218t48.5 -249t20 -263.5q0 -154 -29 -326.5t-72 -313.5t-77.5 -235t-60.5 -149z" />
<glyph unicode="*" horiz-adv-x="841" d="M123 1286l41 96l229 -127l-20 -51zM172 999l201 205l49 -37l-172 -237zM369 1530h104l-24 -275h-56zM422 1167l47 37l203 -205l-78 -69zM449 1255l229 127l41 -96l-250 -82z" />
<glyph unicode="+" horiz-adv-x="1132" d="M123 463v72h407v407h72v-407h408v-72h-408v-408h-72v408h-407z" />
<glyph unicode="," horiz-adv-x="393" d="M-20 -150l217 369l92 -59l-260 -344z" />
<glyph unicode="-" horiz-adv-x="577" d="M104 455v92h369v-92h-369z" />
<glyph unicode="." horiz-adv-x="411" d="M141 0v221h129v-221h-129z" />
<glyph unicode="/" horiz-adv-x="667" d="M-74 -506l617 2036l51 -14l-614 -2034z" />
<glyph unicode="0" horiz-adv-x="1345" d="M123 821q0 78 9.5 152.5t31.5 158t63.5 152.5t100 125.5t147.5 88.5t199 32q94 0 173 -24.5t135 -65.5t99 -99t69.5 -120t43 -134t23 -136t6.5 -130q0 -204 -42.5 -366t-117.5 -264t-174 -155.5t-215 -53.5q-117 0 -216 53.5t-174.5 155.5t-118 264t-42.5 366zM197 821 q0 -234 57.5 -414t166.5 -281t253 -101q143 0 251.5 101t166 281t57.5 414q0 110 -14.5 205t-49.5 181t-88.5 147t-136 97t-186.5 36t-186 -36t-136 -97t-89.5 -147t-50.5 -181t-15 -205z" />
<glyph unicode="1" horiz-adv-x="634" d="M31 1260l420 251l-19 -755l8 -756h-82l19 756l6 676l-328 -220z" />
<glyph unicode="2" horiz-adv-x="1015" d="M43 0l453 629q21 29 69 90.5t77 102.5t63 98.5t50.5 115.5t16.5 117q0 53 -4.5 93.5t-22 88t-48 79t-86 52.5t-132.5 21q-114 0 -189 -36t-122 -114l-53 35q131 158 364 158q72 0 129 -11.5t96 -30.5t67.5 -49t44.5 -60t25.5 -70t12 -73.5t2.5 -76.5q0 -58 -20.5 -120 t-59.5 -123.5t-75 -109.5t-87 -111.5t-75 -96.5l-334 -463l-55 -90l743 35v-80h-850z" />
<glyph unicode="3" horiz-adv-x="1017" d="M61 150l54 43q48 -71 130.5 -119.5t178.5 -48.5q180 0 288.5 114.5t108.5 302.5q0 194 -109 287.5t-300 93.5l-154 -12v74l133 -6q82 2 146.5 24t102.5 54.5t62.5 75.5t33.5 83.5t9 83.5q0 135 -71.5 214t-218.5 79q-120 0 -187 -29t-118 -92l-44 41q105 117 349 117 q176 0 267 -84.5t91 -245.5q0 -258 -295 -344q53 -9 101 -25t100.5 -48t89.5 -75.5t61.5 -112t24.5 -153.5q0 -112 -37.5 -201t-103.5 -145t-151.5 -85t-184.5 -29q-109 0 -203.5 45t-153.5 123z" />
<glyph unicode="4" horiz-adv-x="1089" d="M25 418l757 1112l-6 -1051l221 6v-67l-221 6l12 -424h-86l7 424zM125 479h584l-7 860z" />
<glyph unicode="5" horiz-adv-x="1071" d="M74 76l32 55q48 -41 154.5 -72.5t202.5 -31.5q104 0 188.5 36.5t137.5 100t81.5 145t28.5 174.5q0 201 -98 304.5t-287 103.5q-206 0 -332 -184l-30 22v782h757v-69l-721 37l13 -688q66 71 140 107t173 36q96 0 178 -28t145.5 -82t99.5 -141.5t36 -199.5t-40.5 -207 t-109 -159t-160 -99.5t-194.5 -35.5q-109 0 -220.5 27.5t-174.5 66.5z" />
<glyph unicode="6" horiz-adv-x="1138" d="M111 483q0 40 0.5 73t5.5 114.5t13.5 149.5t27 161.5t44 167.5t66.5 151.5t92 129.5t123.5 85t157.5 33q90 0 182 -28l-22 -45q-43 25 -76 34t-84 9q-66 0 -122.5 -22.5t-98 -58t-76.5 -91t-57.5 -109t-41 -125.5t-28.5 -127.5t-17.5 -128t-10 -113t-5.5 -96.5 q49 136 157.5 208.5t240.5 72.5q92 0 174 -27t148 -79.5t104.5 -140t38.5 -198.5t-41 -206.5t-108 -158.5t-151 -98.5t-172 -35.5q-134 0 -241 67t-165 181t-58 251zM184 465q0 -123 45.5 -221.5t135.5 -157.5t210 -59q119 0 211 63.5t139.5 166.5t47.5 226 q0 198 -101.5 297t-289.5 99q-170 1 -284 -117t-114 -297z" />
<glyph unicode="7" horiz-adv-x="1001" d="M31 1444v67h940l-701 -1529l-61 28l704 1458z" />
<glyph unicode="8" horiz-adv-x="1126" d="M92 442q0 82 21.5 150t56 114.5t81.5 81t94.5 53t98.5 27.5q-270 68 -270 338q0 147 105 235.5t284 88.5q178 0 283.5 -88.5t105.5 -235.5q0 -270 -270 -338q51 -9 98.5 -27.5t94.5 -53t81.5 -81t56 -114.5t21.5 -150q0 -111 -40.5 -200.5t-108 -144.5t-150.5 -84 t-172 -29t-172 29t-150.5 84t-108 144.5t-40.5 200.5zM166 442q0 -186 107.5 -304t289.5 -118t290 118t108 304q0 196 -105 295t-293 99t-292.5 -99t-104.5 -295zM242 1206q0 -43 7.5 -83.5t29 -85t55.5 -77t93 -54t136 -21.5t136 21.5t93.5 54t56 77t29 85t7.5 83.5 q0 131 -80 212t-242 81t-241.5 -81t-79.5 -212z" />
<glyph unicode="9" horiz-adv-x="1138" d="M80 1049q0 111 41 206.5t107.5 158.5t150.5 98.5t172 35.5q109 0 198.5 -40.5t147 -110t88.5 -159t31 -189.5q0 -297 -27 -467q-93 -598 -528 -598q-124 0 -213 47l22 45q97 -56 191 -56q62 0 116.5 16.5t96 48.5t76.5 71.5t61 93t46 104t33.5 114t23 114.5t15 113 t8.5 101.5t5 88.5q-50 -137 -158.5 -212t-238.5 -75q-92 0 -174 28t-148 82t-104.5 142t-38.5 199zM154 1049q0 -199 102 -303.5t289 -104.5q169 -1 283 122.5t114 303.5q0 124 -43 221.5t-133 157t-215 59.5q-119 0 -211 -63.5t-139 -166.5t-47 -226z" />
<glyph unicode=":" horiz-adv-x="411" d="M141 0v221h129v-221h-129zM141 795v221h129v-221h-129z" />
<glyph unicode=";" horiz-adv-x="411" d="M-20 -150l217 369l92 -59l-260 -344zM139 795v221h129v-221h-129z" />
<glyph unicode="&#x3c;" horiz-adv-x="980" d="M104 592l736 442l37 -55l-682 -387l682 -387l-37 -55z" />
<glyph unicode="=" horiz-adv-x="991" d="M104 317v72h783v-72h-783zM104 612v72h783v-72h-783z" />
<glyph unicode="&#x3e;" horiz-adv-x="980" d="M104 205l682 387l-682 387l37 55l736 -442l-736 -442z" />
<glyph unicode="?" horiz-adv-x="772" d="M154 1438q74 47 188 47q132 0 204 -71.5t72 -211.5q0 -57 -21.5 -104.5t-56.5 -82t-76.5 -65.5t-83.5 -61.5t-77 -62.5t-56.5 -76t-21.5 -95q0 -186 148 -186q44 0 78 27l16 -37q-41 -27 -94 -27q-103 0 -159 69t-56 173q0 55 21.5 102.5t56 82t76.5 66t83.5 61.5t76 62 t56 74.5t21.5 91.5q0 115 -54 174.5t-155 59.5q-97 0 -160 -51zM281 0v221h129v-221h-129z" />
<glyph unicode="@" horiz-adv-x="1742" d="M122.5 643q-3.5 68 8.5 133q17 111 64 221t124.5 209.5t176 175.5t228.5 121t271 45q90 0 170 -19t141.5 -53t114 -80.5t88 -103t62.5 -119.5t37 -129.5t13 -134.5t-9 -133q-22 -151 -49 -223q-75 -199 -258 -199q-59 0 -107 22.5t-75.5 74t-14.5 122.5 q-111 -219 -336 -219q-66 0 -122.5 30t-97.5 89.5t-56 148t2 205.5q10 62 42.5 126.5t83.5 122t127 94t162 36.5q204 0 273 -147l8 129h80l-94 -565q-20 -128 15 -177t132 -49q44 0 78.5 25t55 61.5t36 88t23.5 93.5t15 89q2 15 3 22q18 93 10 183t-31.5 171.5t-72 150.5 t-111.5 119t-150.5 78.5t-189.5 28.5q-120 0 -234.5 -42t-205.5 -114t-165 -165.5t-120 -198.5t-63 -211q-10 -76 -8.5 -151t22 -147t51 -136t79.5 -117.5t107.5 -92.5t134.5 -61t161 -22q232 0 436 152l35 -43q-216 -158 -473 -158q-89 0 -168.5 19t-141 53t-114 81.5 t-88.5 104t-63 120t-38 130.5t-14.5 135zM571 827q-32 -198 28.5 -311t186.5 -113q127 0 217 96t130 271l14 92q24 140 -37.5 220.5t-196.5 80.5q-121 0 -221 -100.5t-121 -235.5z" />
<glyph unicode="A" horiz-adv-x="1392" d="M68 14l628 1516l629 -1516l-68 -26l-206 573h-709l-207 -573zM375 616h643l-322 756z" />
<glyph unicode="B" horiz-adv-x="1085" d="M184 0l13 827l-13 684h125q47 6 75.5 8.5t81.5 5.5q32 2 57 2q17 0 31 -1q35 -2 84 -9.5t81 -22.5t68 -40t57 -59.5t35 -84.5t14 -112q0 -66 -18.5 -121t-47.5 -92.5t-69.5 -66.5t-79 -45t-82.5 -27q190 -16 293.5 -115.5t103.5 -310.5q0 -95 -29.5 -171t-82.5 -125 t-122 -81.5t-152 -45.5q-77 -12 -155 -12h-12q-84 1 -174 15h-82zM252 807l6 -776q82 -13 158 -15q16 -1 32 -1q59 0 120 7q77 9 139 36.5t111 71.5t75.5 115t26.5 163q0 236 -110 331q-90 78 -246 78q-34 0 -72 -4zM252 854l180 -4q51 3 101.5 14t104 36.5t94 61.5 t66.5 92.5t27 125.5q0 74 -16 129t-40.5 90.5t-69.5 57t-86.5 31t-107.5 9.5t-117 -4.5t-130 -13.5z" />
<glyph unicode="C" horiz-adv-x="1183" d="M123 879q0 88 23.5 179.5t74 180t121 157t174.5 110.5t225 42q170 0 293 -63l-24 -62q-148 76 -269 76q-112 0 -213 -49.5t-173.5 -133t-115 -197.5t-42.5 -240q0 -235 75 -426.5t199 -297.5t270 -106q184 0 338 178l37 -43q-85 -94 -182 -145t-193 -51q-86 0 -173 38 t-167 115t-142 182t-99 249.5t-37 306.5z" />
<glyph unicode="D" horiz-adv-x="1155" d="M184 0l13 768l-13 741h213q119 0 223 -39.5t178 -105t128 -149.5t80 -174t26 -177q0 -204 -51.5 -370t-139.5 -272.5t-202 -164t-242 -57.5h-213zM252 49h145q167 0 295.5 107t197 292t68.5 416q0 112 -40.5 220t-112 193t-178.5 137t-230 52h-145v-1417z" />
<glyph unicode="E" horiz-adv-x="1191" d="M184 0l6 756l-6 753h848v-67l-780 31v-691h719v-55h-719v-696l817 37v-68h-885z" />
<glyph unicode="F" horiz-adv-x="1112" d="M184 0l6 729l-6 780h824v-67l-756 37v-727h719v-56h-719v-696h-68z" />
<glyph unicode="G" horiz-adv-x="1251" d="M123 877q0 88 23.5 180t74 180.5t121 157t174.5 111t225 42.5q87 0 174.5 -16.5t143.5 -44.5l-31 -68q-57 29 -140.5 51.5t-146.5 22.5q-124 0 -226.5 -51t-168.5 -136.5t-101.5 -196t-35.5 -232.5q0 -179 42 -336t114 -266.5t169.5 -172.5t206.5 -63q83 0 170.5 42 t157.5 114v538l-461 -31v68h520v-592q-83 -92 -185.5 -141t-201.5 -49q-86 0 -173 38t-167 114.5t-142 181t-99 249t-37 306.5z" />
<glyph unicode="H" horiz-adv-x="1320" d="M184 0v1509h74l-25 -727h854l-24 727h74v-1509h-74l24 727h-854l25 -727h-74z" />
<glyph unicode="I" horiz-adv-x="460" d="M184 0l19 754l-6 755h79l-18 -755l6 -754h-80z" />
<glyph unicode="J" horiz-adv-x="442" d="M-74 -137q28 -5 52 -5q101 0 158 78q71 97 71 328l4 613l-8 632h80l-19 -632l4 -601q0 -93 -12 -167.5t-30.5 -123.5t-48 -84.5t-57 -54t-65.5 -29.5t-65.5 -13.5t-63.5 -2.5v62z" />
<glyph unicode="K" horiz-adv-x="1050" d="M184 0l13 762l-13 749h68v-749l569 762l37 -27l-563 -741l688 -721l-57 -47l-660 729l-14 -21v-696h-68z" />
<glyph unicode="L" horiz-adv-x="983" d="M184 0l6 768l-6 741h68v-1478l694 37v-68h-762z" />
<glyph unicode="M" horiz-adv-x="1605" d="M92 6l170 1524l541 -1385l543 1385l167 -1524l-73 -6l-117 1335l-520 -1353l-518 1353l-113 -1335z" />
<glyph unicode="N" horiz-adv-x="1519" d="M184 0v1528l1102 -1401l-37 1382h86v-1527l-1102 1413l37 -1395h-86z" />
<glyph unicode="O" d="M123 877q0 88 23.5 178t74 176t121 152t174.5 106.5t225 40.5t224 -40.5t174 -107t121.5 -152t74 -175.5t23.5 -178q0 -162 -36.5 -306.5t-98 -249t-141 -181t-167 -114.5t-174.5 -38t-175 38t-167.5 114.5t-141 181t-98 249t-36.5 306.5zM197 877q0 -166 44 -322 t117.5 -270.5t174 -184t208.5 -69.5q143 0 268.5 116.5t200 312t74.5 417.5q0 174 -68 311.5t-192 215t-283 77.5q-242 0 -393 -169.5t-151 -434.5z" />
<glyph unicode="P" horiz-adv-x="1089" d="M184 0l13 791l-13 720h125q101 8 189 8q52 -1 98 -3q128 -8 216.5 -40.5t136.5 -116t48 -222.5q0 -84 -15.5 -150t-50 -120t-91.5 -88q-58 -33 -140 -51q-65 -14 -150 -14h-44q-112 4 -254 31l6 -745h-74zM252 786q156 -30 272 -32q11 0 22 1q101 0 172 20 q79 23 127.5 73t69.5 120.5t21 168.5q0 125 -39 199t-123 109q-82 35 -212 41q-41 2 -87 1q-100 0 -223 -8v-693z" />
<glyph unicode="Q" d="M123 877q0 88 23.5 178t74 176t121 152t174.5 106.5t225 40.5t224 -40.5t174 -107t121.5 -152t74 -175.5t23.5 -178q0 -180 -40 -335t-109.5 -264.5t-160.5 -180.5t-196 -97l391 -250l-49 -49l-399 289q-16 -2 -54 -2q-94 0 -184.5 38t-168.5 114.5t-137.5 181.5 t-93.5 248.5t-34 306.5zM197 877q0 -227 66 -418.5t192 -309.5t286 -118q128 0 232.5 68.5t171.5 185.5t103 269t36 323q0 174 -68 311.5t-192 215t-283 77.5q-242 0 -393 -169.5t-151 -434.5z" />
<glyph unicode="R" horiz-adv-x="1130" d="M184 0l13 791l-13 720h125q98 8 184 8q53 0 101 -3q126 -8 214.5 -41t135.5 -115t47 -217q0 -380 -483 -400l506 -700l-66 -49l-502 747q-66 0 -194 11l6 -752h-74zM252 805q130 -18 232 -18q43 -1 81 3q129 10 210 59t118 121.5t37 172.5q0 118 -38.5 190t-120.5 108 q-83 36 -211 43q-47 3 -101 3q-93 0 -207 -8v-674z" />
<glyph unicode="S" horiz-adv-x="1024" d="M154 41l20 43q47 -26 126 -45t157 -19q73 0 135 18.5t113 56t80.5 103t29.5 152.5q0 70 -22.5 131.5t-60 108t-86.5 88t-103.5 77t-108.5 70t-103 72t-86.5 78t-60 93t-22.5 112.5q0 86 26.5 151.5t66 102t96 59.5t106.5 30t108 7q139 0 260 -64l-30 -59q-101 80 -230 80 q-50 0 -90 -4.5t-89.5 -22.5t-83 -48.5t-56.5 -88.5t-23 -137q0 -52 22 -98.5t59.5 -83t86 -71.5t102 -69t107.5 -69.5t102.5 -78.5t86 -91.5t59.5 -112.5t22 -137q0 -92 -26 -163t-66.5 -113.5t-95.5 -69.5t-106.5 -37t-106.5 -10q-217 0 -315 59z" />
<glyph unicode="T" horiz-adv-x="1173" d="M61 1444v67h1051v-67l-491 37v-1481h-68v1481z" />
<glyph unicode="U" horiz-adv-x="1492" d="M166 791v718h80l-19 -718v-28q-1 -131 25 -243q28 -124 81 -212t125 -150t154.5 -91.5t171.5 -29.5q329 0 457 262v1210h68v-1509h-68v217q-162 -235 -457 -235q-90 0 -175.5 26t-167 87.5t-141.5 152.5t-97 231t-37 312z" />
<glyph unicode="V" horiz-adv-x="1212" d="M49 1493l68 18l512 -1366l481 1366l53 -22l-532 -1507z" />
<glyph unicode="W" horiz-adv-x="1863" d="M49 1493l80 18l338 -1335l471 1354l469 -1354l340 1335l68 -18l-404 -1511l-479 1372l-469 -1372z" />
<glyph unicode="X" horiz-adv-x="1179" d="M92 18l459 762l-455 713l62 31l426 -705l397 705l51 -37l-428 -705l483 -751l-67 -43l-440 747l-435 -747z" />
<glyph unicode="Y" horiz-adv-x="1136" d="M31 1509h82l458 -723l465 723h70l-512 -757l12 -752h-80l13 752z" />
<glyph unicode="Z" horiz-adv-x="1337" d="M123 0l971 1466l-942 -24v67h1044l-958 -1466l976 25v-68h-1091z" />
<glyph unicode="[" horiz-adv-x="571" d="M184 -518l19 1024l-19 1005h308v-49l-240 13v-1956l240 12v-49h-308z" />
<glyph unicode="\" horiz-adv-x="851" d="M74 1516l51 14l616 -2036l-53 -12z" />
<glyph unicode="]" horiz-adv-x="571" d="M0 -469l240 -12v1956l-240 -13v49h307l-18 -1005l18 -1024h-307v49z" />
<glyph unicode="^" horiz-adv-x="1019" d="M104 911l406 619l405 -619l-55 -37l-350 578l-350 -578z" />
<glyph unicode="_" horiz-adv-x="991" d="M104 -18h783v-72h-783v72z" />
<glyph unicode="`" horiz-adv-x="430" d="M55 1466l43 43l271 -254l-13 -14z" />
<glyph unicode="a" horiz-adv-x="909" d="M80 246q0 69 39.5 119.5t99.5 76t133.5 45.5t138 30t116.5 27.5t67 41.5v133q2 28 2 53q0 48 -8 84q-13 56 -40 84q-28 30 -66 46q-36 16 -78 15h-4q-44 -1 -89 -4q-54 -6 -109.5 -28t-88.5 -49l-27 34q37 25 92 45.5t104 26.5q66 8 118 8h17q58 -2 100 -20t69.5 -42.5 t44 -62t23.5 -76.5t7 -88v-604q-1 -85 35 -111q19 -14 46 -15q22 0 48 10l9 -19q-34 -12 -68 -13h-5q-30 1 -60 11q-32 12 -52 47t-20 90q-117 -155 -283 -155q-60 0 -113.5 14.5t-98.5 44.5t-72 81.5t-27 119.5zM147 233q0 -77 63.5 -140.5t192.5 -63.5q24 0 45 2.5t37.5 5 t34 10t28 11.5t25.5 16t22 17t21.5 21t18.5 20.5t19.5 23.5t19.5 24v359q-21 -20 -71 -35t-107 -23.5t-120 -26.5t-113 -41.5t-83 -69.5t-33 -110z" />
<glyph unicode="b" horiz-adv-x="1167" d="M184 0v1509h80l-22 -759q15 49 47 97t77.5 91t110 69.5t135.5 26.5q86 0 159 -30t122 -78.5t84 -110.5t51 -125.5t16 -124.5q0 -138 -37.5 -251t-99.5 -184t-138 -109.5t-157 -38.5q-120 0 -214 68t-152 200l-19 -250h-43zM240 485q0 -105 33.5 -193t88 -144t119.5 -86.5 t131 -30.5q101 0 185 71.5t132 194t48 268.5q0 172 -105.5 296t-257.5 124q-101 0 -187.5 -58.5t-136.5 -155.5t-50 -206v-80z" />
<glyph unicode="c" horiz-adv-x="884" d="M92 571q0 61 15.5 124t50.5 124t84.5 108.5t124.5 77t165 29.5q49 0 107 -12.5t98 -30.5l-28 -53q-121 59 -183 59q-108 0 -192 -61t-126 -157t-42 -208q0 -250 99 -398t267 -148q28 0 49.5 3.5t53.5 16t69 42.5t76 77l43 -39q-134 -143 -284 -143q-81 0 -160 39.5 t-143.5 111.5t-104 186.5t-39.5 251.5z" />
<glyph unicode="d" horiz-adv-x="1130" d="M92 565q0 61 15.5 124.5t49.5 125.5t82.5 110.5t120.5 78.5t158 30q140 0 239.5 -76t131.5 -178l-23 729h80v-1509h-43l-18 231q-110 -249 -367 -249q-80 0 -155.5 38.5t-136.5 109.5t-97.5 184t-36.5 251zM160 565q0 -146 46.5 -268.5t129 -194t182.5 -71.5q66 0 131 28 t119.5 80t88.5 137.5t34 190.5v135q0 164 -109 273.5t-266 109.5q-100 0 -182.5 -57.5t-128 -153.5t-45.5 -209z" />
<glyph unicode="e" horiz-adv-x="1013" d="M92 571q0 76 29 156t81 149t135.5 113.5t182.5 44.5q96 0 174.5 -43.5t125.5 -113t73 -147t29 -155.5v-61h-752q11 -230 106 -360q94 -130 260 -129h3q28 0 52 4t60 16t75.5 42.5t78.5 76.5l47 -47q-63 -67 -145 -101t-162 -34q-195 0 -324 156.5t-129 432.5zM172 569 l676 6q-3 112 -38 205t-109 155t-175 62q-107 0 -189 -61.5t-123 -157.5t-42 -209z" />
<glyph unicode="f" horiz-adv-x="628" d="M61 954v62l191 -6v141q-1 25 -1 47q0 65 7 116q8 69 21 112t40 67t48.5 33.5t62 5t65.5 -11t72 -21.5l-22 -45q-35 20 -64 30.5t-59 11t-52 -14t-39.5 -49t-25.5 -88.5q-6 -42 -6 -101q0 -18 1 -39q2 -84 17 -194l218 6v-62l-218 7l13 -961h-84l12 961z" />
<glyph unicode="g" horiz-adv-x="964" d="M80 -180q0 57 21.5 102.5t54.5 73.5t77 47t84.5 27t81.5 10q-48 4 -87.5 19.5t-67.5 48t-29 77.5q0 20 4.5 37.5t11 29t18.5 22.5t21.5 17t25 12t23.5 8t23 6t18 5q-91 40 -148.5 139t-57.5 216q0 138 95.5 227.5t233.5 89.5q67 0 125 -24l277 6v-43l-221 8 q67 -42 107 -112t40 -152q0 -168 -95 -272.5t-233 -104.5q-207 0 -207 -115q0 -53 58.5 -78.5t148.5 -25.5q181 0 291.5 -86.5t110.5 -214.5q0 -59 -29.5 -119t-80.5 -108.5t-128 -79.5t-164 -31q-88 0 -165.5 31t-128.5 80t-80 108.5t-29 118.5zM147 -180 q0 -55 21.5 -106.5t61.5 -94t106 -68.5t147 -26q82 0 148 26.5t105.5 70t60 94.5t20.5 104q0 103 -82 171t-233 68q-355 0 -355 -239zM221 717q0 -136 74 -238t188 -102q78 0 138.5 49t91 126t30.5 165q0 117 -71 198.5t-189 81.5q-117 0 -189.5 -78.5t-72.5 -201.5z" />
<glyph unicode="h" horiz-adv-x="1185" d="M184 0v1530h80l-18 -762q25 54 51.5 94.5t68 82.5t99.5 64.5t129 22.5q106 0 190 -42t133.5 -111.5t75 -149.5t27.5 -164l12 -565h-80v565q0 85 -21.5 158t-63.5 130.5t-112 90.5t-161 33q-155 0 -251 -123q-91 -117 -91 -294v-19l12 -541h-80z" />
<glyph unicode="i" horiz-adv-x="466" d="M184 0l13 508l-7 508h74l-12 -508l6 -508h-74zM184 1290v221h86v-221h-86z" />
<glyph unicode="j" horiz-adv-x="466" d="M-176 -475q72 0 136.5 22.5t120.5 69.5t89 131.5t33 196.5v479l-13 592h80l-6 -1059q0 -90 -17.5 -163.5t-45 -121.5t-67 -84.5t-78 -56t-84.5 -31.5t-79 -15t-69 -3v43zM176 1290v221h86v-221h-86z" />
<glyph unicode="k" horiz-adv-x="882" d="M184 0l25 522l-19 989h66v-944l446 461l35 -29l-430 -428l508 -532l-45 -51l-491 555l-23 -21v-522h-72z" />
<glyph unicode="l" horiz-adv-x="473" d="M184 0l19 762l-6 766h79l-18 -766l8 -762h-82z" />
<glyph unicode="m" horiz-adv-x="1761" d="M184 0v1016h68l-6 -254q17 47 30 76.5t39.5 70.5t56.5 64.5t78 41t107 17.5q80 0 143 -23.5t104.5 -66t67.5 -94t41 -115.5q14 44 28.5 79t41 78.5t58 72.5t79.5 49t105 20q86 0 152 -28t106 -72t65.5 -107.5t35.5 -125.5t11 -134l13 -565h-80v565q0 97 -13.5 170 t-46 134t-94 93.5t-149.5 32.5q-84 0 -149.5 -61.5t-100 -155t-41.5 -203.5v-10l14 -565h-82v565q0 76 -8.5 137t-30.5 116t-57 91.5t-90.5 58t-128.5 21.5q-75 0 -134.5 -38.5t-94.5 -102.5q-36 -66 -54 -144q-16 -71 -16 -146v-17l12 -541h-80z" />
<glyph unicode="n" horiz-adv-x="1136" d="M184 0v1016h68l-6 -254q23 56 46 96t61.5 83.5t94.5 67t127 23.5q86 0 154.5 -27.5t112.5 -73t73.5 -107t42 -125.5t13.5 -134l12 -565h-80v565q0 418 -334 418q-75 0 -137 -38t-101 -100.5t-60 -140.5q-19 -72 -19 -148v-15l12 -541h-80z" />
<glyph unicode="o" horiz-adv-x="1062" d="M92 578q0 61 16.5 123.5t52.5 122.5t86.5 106.5t124.5 75t160 28.5t159.5 -28.5t124 -75t86.5 -106.5t52.5 -122.5t16.5 -123.5q0 -138 -38.5 -253t-102 -188.5t-141 -114t-157.5 -40.5q-81 0 -159 40.5t-141 114t-101.5 188.5t-38.5 253zM160 578q0 -248 101.5 -394.5 t270.5 -146.5q168 0 269.5 146.5t101.5 394.5q0 169 -103.5 285t-267.5 116q-165 0 -268.5 -115.5t-103.5 -285.5z" />
<glyph unicode="p" horiz-adv-x="1155" d="M184 -518v1534h74l-6 -234q48 103 147.5 177.5t225.5 74.5q86 0 159.5 -30.5t123.5 -79.5t86 -111.5t52.5 -126.5t16.5 -125q0 -137 -38.5 -250t-101.5 -183t-140 -108t-158 -38q-112 0 -217 69t-162 195l18 -764h-80zM246 475q0 -103 31.5 -187.5t85 -138.5t121 -83 t141.5 -29q154 0 262 152t108 372q0 177 -104.5 297.5t-265.5 120.5q-156 0 -267.5 -121t-111.5 -291v-92z" />
<glyph unicode="q" horiz-adv-x="1148" d="M92 555q0 61 16 125.5t51 128t84 113.5t122 81t159 31q125 0 225 -77t148 -181l-6 240h74v-1534h-80l18 770q-58 -127 -163 -198.5t-216 -71.5q-81 0 -157 37t-138 106t-99.5 180.5t-37.5 249.5zM160 555q0 -224 101.5 -371t262.5 -147q74 0 141.5 30t121 85t85 140.5 t31.5 188.5v80q0 170 -112 294t-267 124q-160 0 -262 -123t-102 -301z" />
<glyph unicode="r" horiz-adv-x="667" d="M178 0l6 535l-6 481h74l-6 -285q14 53 38.5 102t63 96t97.5 75t130 28l-6 -74q-131 0 -229 -123q-95 -118 -94 -281v-13l12 -541h-80z" />
<glyph unicode="s" horiz-adv-x="708" d="M92 37l19 41q30 -24 86.5 -38.5t115.5 -14.5q125 0 182.5 68.5t57.5 164.5q0 49 -23.5 91t-61.5 73.5t-83.5 61.5t-91 61t-83.5 65t-61.5 81t-23.5 102q0 107 66.5 174t173.5 67q112 0 188 -39l-29 -47q-1 1 -11.5 7.5t-15 8.5t-15.5 7.5t-21 8t-25 5.5t-32.5 4.5 t-38.5 1.5q-179 0 -179 -192q0 -63 44.5 -115.5t107.5 -92.5t126 -82t107.5 -103t44.5 -136q0 -125 -84 -206.5t-217 -81.5q-144 0 -223 55z" />
<glyph unicode="t" horiz-adv-x="661" d="M61 948v68l181 -6l-9 317h84l-8 -317l250 6v-68l-252 6l-6 -600q0 -124 18.5 -194t55.5 -95.5t93 -27.5h17q51 0 115 10v-59q-22 0 -64 -1q-25 -2 -49 -2q-19 0 -35 1q-40 3 -73 10.5t-59.5 32.5t-44.5 65q-17 42 -25 110q-5 45 -5 100q0 30 1 63l-4 587z" />
<glyph unicode="u" horiz-adv-x="1204" d="M154 543v473h73l-6 -473q0 -242 92 -374t267 -132q75 0 140.5 25.5t118 76t83 134t30.5 190.5l-12 553h80v-1016h-37l-25 227q-38 -84 -102 -141t-133 -80.5t-143 -23.5q-69 0 -130.5 19.5t-116 63.5t-94 108t-62.5 159t-23 211z" />
<glyph unicode="v" horiz-adv-x="995" d="M74 1001l69 27l373 -919l352 919l54 -20l-408 -1026z" />
<glyph unicode="w" horiz-adv-x="1556" d="M68 1001l75 27l320 -907l321 919l349 -919l297 907l53 -20l-353 -1026l-350 888l-319 -888z" />
<glyph unicode="x" horiz-adv-x="899" d="M88 20l305 527l-301 442l68 37l270 -432l252 432l41 -27l-274 -434l358 -540l-66 -37l-323 528l-287 -528z" />
<glyph unicode="y" horiz-adv-x="976" d="M74 1001l69 27l361 -932l346 932l53 -20l-381 -988l-203 -538l-65 26l221 525z" />
<glyph unicode="z" horiz-adv-x="956" d="M104 0l646 985l-605 -37v68h682l-639 -981l664 33v-68h-748z" />
<glyph unicode="{" horiz-adv-x="598" d="M12 489v76q91 14 133.5 69t42.5 183v197q0 30 -1 87v107t5.5 91.5t18 75t36.5 59t60.5 43t90 26t126.5 8.5v-43q-47 -1 -76.5 -4t-59 -11.5t-46.5 -20.5t-33 -36.5t-23.5 -55t-14 -79t-8 -104.5t-1.5 -137v-203q0 -122 -45.5 -190.5t-159.5 -98.5q114 -31 159.5 -99.5 t45.5 -190.5v-265q0 -81 1.5 -137t8 -104.5t14 -79t23.5 -55t33 -36.5t46.5 -20.5t59 -11.5t76.5 -4v-43q-73 0 -126.5 8.5t-90 26t-60.5 43t-36.5 59.5t-18 75.5t-5.5 91.5v107q1 57 1 87v258q0 128 -42.5 182.5t-133.5 68.5z" />
<glyph unicode="|" horiz-adv-x="436" d="M184 -518l6 1024l-6 1005h68l-6 -1005l6 -1020z" />
<glyph unicode="}" horiz-adv-x="598" d="M74 -475q47 1 76.5 4t59 11.5t46.5 20.5t33 36.5t23.5 55t14 79t8 104.5t1.5 137v265q0 122 45.5 190.5t159.5 99.5q-114 30 -159.5 98.5t-45.5 190.5v203q0 81 -1.5 137t-8 104.5t-14 79t-23.5 55t-33 36.5t-46.5 20.5t-59 11.5t-76.5 4v43q73 0 126.5 -8.5t90 -26 t60.5 -43t36.5 -59t18 -75t5.5 -91.5v-107q-1 -57 -1 -87v-197q0 -128 42.5 -183t133.5 -69v-76q-91 -14 -133.5 -68.5t-42.5 -182.5v-258q0 -30 1 -87v-107t-5.5 -91.5t-18 -75.5t-36.5 -59.5t-60.5 -43t-90 -26t-126.5 -8.5v43z" />
<glyph unicode="~" horiz-adv-x="991" d="M92 453q0 140 55 213t177 73q54 0 94.5 -22.5t67 -54.5t51.5 -63.5t62.5 -54t86.5 -22.5q77 0 117 57t49 138h47q0 -142 -53.5 -212.5t-177.5 -70.5q-46 0 -83 15t-59.5 38t-46.5 49.5t-45 49.5t-53.5 38t-73.5 15q-40 0 -69 -11.5t-45 -27.5t-27 -43.5t-15 -49t-8 -54.5 h-51z" />
<glyph unicode="&#xa1;" horiz-adv-x="411" d="M141 795v221h129v-221h-129zM160 -494l18 1061h55l19 -1061h-92z" />
<glyph unicode="&#xa2;" horiz-adv-x="1024" d="M92 571q0 73 23 147t68 141.5t122.5 115t175.5 57.5l8 223l68 -2l-16 -219q111 -3 196 -43l-28 -53q-119 55 -170 59l-33 -456l-19 -512q28 -4 45 -4q28 0 49.5 3.5t53.5 16t69 42.5t76 77l43 -39q-134 -143 -284 -143q-18 0 -54 4l-10 -265l-67 3l18 276 q-142 48 -238 198t-96 373zM166 571q0 -207 69.5 -347t192.5 -183l35 528l16 424q-95 -12 -167.5 -74.5t-109 -153t-36.5 -194.5z" />
<glyph unicode="&#xa3;" horiz-adv-x="1003" d="M92 0v45q142 3 232 73t90 195q0 53 -14.5 107t-30 86.5t-49 93.5t-46.5 88l-145 2v47l121 2q-64 154 -64 312q0 86 26.5 151.5t66 102t96.5 59.5t107 30t108 7q66 0 143 -22.5t135 -53.5l-30 -59q-47 37 -115.5 64.5t-132.5 27.5q-50 0 -88.5 -4.5t-86.5 -22.5 t-79.5 -48.5t-53.5 -88.5t-22 -137q0 -161 74 -316l395 9v-72l-369 8q9 -18 41 -82.5t45 -94.5t27 -86t14 -110q0 -91 -57.5 -157t-155.5 -105l637 21v-72h-819z" />
<glyph unicode="&#xa4;" horiz-adv-x="847" d="M92 709q0 120 92 223l-51 63l41 33l51 -59q85 65 199 65q125 0 213 -78l59 72l41 -33l-63 -77q39 -45 60.5 -101t21.5 -108q0 -167 -86 -285l67 -82l-41 -33l-61 74q-91 -98 -211 -98q-110 0 -199 86l-51 -62l-41 33l55 68q-96 121 -96 299zM164 709q0 -175 71 -271 t189 -96t189 96t71 271q0 120 -71 197t-189 77t-189 -77t-71 -197z" />
<glyph unicode="&#xa5;" horiz-adv-x="1259" d="M92 1448h88l453 -797l452 797h82l-510 -817l365 6v-66l-365 7l2 -205l363 6v-66l-360 6l6 -319h-80l6 319l-354 -6v66l356 -6l2 205l-358 -7v66l358 -6z" />
<glyph unicode="&#xa6;" horiz-adv-x="436" d="M184 -518l4 848h60l4 -844zM184 1511h68l-4 -798h-60z" />
<glyph unicode="&#xa7;" horiz-adv-x="727" d="M92 -481l19 41q30 -24 87 -39t115 -15q65 0 114 22.5t75 58.5t38.5 74.5t12.5 78.5q0 49 -24.5 91t-64 73.5t-87.5 61t-95.5 60.5t-87 65t-64 81t-24.5 102q0 106 75.5 177t183.5 71q27 0 67 -4q-23 16 -66 43t-71 44.5t-63.5 47t-56 56.5t-35.5 65t-15 80 q0 107 66.5 174.5t173.5 67.5q112 0 188 -39l-29 -47q-1 1 -11.5 7.5t-15 8.5t-15.5 7.5t-21 8t-25 5.5t-32.5 4.5t-38.5 1.5q-32 0 -59.5 -7.5t-56.5 -26.5t-46 -59.5t-17 -99.5q0 -46 25 -86.5t64.5 -71t87.5 -60t95.5 -61t87 -65.5t64.5 -81.5t25 -102.5 q0 -108 -74.5 -188.5t-183.5 -94.5q110 -73 147 -107q91 -85 92 -190q0 -125 -84 -207t-217 -82q-143 0 -223 56zM168 281q0 -59 34.5 -104t98.5 -91q125 1 197.5 72t72.5 161q0 66 -43 119q-46 41 -163 41q-32 0 -62 -7.5t-62.5 -26.5t-52.5 -61t-20 -103z" />
<glyph unicode="&#xa8;" horiz-adv-x="534" d="M61 1481h93l-13 -221h-67zM381 1481h92l-12 -221h-68z" />
<glyph unicode="&#xa9;" horiz-adv-x="1728" d="M123 776q-1 111 28.5 221t91 209.5t148.5 175.5t209.5 121t263.5 45t264 -45t209.5 -121t148.5 -175.5t91.5 -209.5t28.5 -221q-1 -106 -30.5 -214t-91.5 -209.5t-148 -179.5t-208.5 -125.5t-263.5 -47.5t-263.5 47.5t-208 125.5t-147.5 179.5t-91.5 209.5t-30.5 214z M190 776q0 -132 49 -262t135 -233.5t214.5 -167.5t275.5 -64t275.5 64t214.5 167.5t135 233.5t49 262q1 105 -29.5 210.5t-90 199t-140.5 165.5t-189 114t-227 42q-148 -1 -276.5 -66.5t-214 -169.5t-134 -233.5t-47.5 -261.5zM543 842q0 63 22 127.5t63 121.5t110 92.5 t153 35.5q107 0 172 -41l-27 -48q-56 37 -145 37q-127 0 -198.5 -89.5t-71.5 -235.5q0 -203 73 -323t197 -120q63 0 107.5 16.5t82.5 59.5l33 -35q-86 -98 -223 -98q-61 0 -122 35t-112 97t-82.5 158.5t-31.5 209.5z" />
<glyph unicode="&#xaa;" horiz-adv-x="843" d="M92 569v72h660v-72h-660zM117 924q0 52 28.5 90.5t71.5 58.5t95.5 36.5t99.5 25.5t84.5 23t48.5 32v88q4 74 -10 119.5t-41.5 61t-64.5 20t-79 -3.5q-71 -8 -137 -58l-31 37q63 45 148 55q68 12 117 4t81 -24.5t50.5 -47.5t26 -65t7.5 -78v-452q0 -26 5 -42t11 -23.5 t21.5 -7.5t24 1.5t31.5 7.5l12 -39q-28 -11 -57 -11.5t-55 9t-43 36.5t-17 69q-87 -117 -213 -117q-93 0 -154 48t-61 147zM186 913q0 -55 38 -92t124 -37q60 0 105.5 30.5t91.5 84.5v238q-18 -17 -63.5 -29t-93.5 -22t-95 -27t-77 -54t-30 -92z" />
<glyph unicode="&#xab;" horiz-adv-x="817" d="M104 592l265 225l30 -35l-186 -190l182 -186l-26 -39zM418 592l264 225l31 -35l-187 -190l183 -186l-27 -39z" />
<glyph unicode="&#xac;" horiz-adv-x="991" d="M104 526v72h783v-346h-72v274h-711z" />
<glyph unicode="&#xad;" horiz-adv-x="577" d="M104 455v92h369v-92h-369z" />
<glyph unicode="&#xae;" horiz-adv-x="1728" d="M123 776q-1 111 28.5 221t91 209.5t148.5 175.5t209.5 121t263.5 45t264 -45t209.5 -121t148.5 -175.5t91.5 -209.5t28.5 -221q-1 -106 -30.5 -214t-91.5 -209.5t-148 -179.5t-208.5 -125.5t-263.5 -47.5t-263.5 47.5t-208 125.5t-147.5 179.5t-91.5 209.5t-30.5 214z M190 776q0 -132 49 -262t135 -233.5t214.5 -167.5t275.5 -64t275.5 64t214.5 167.5t135 233.5t49 262q1 105 -29.5 210.5t-90 199t-140.5 165.5t-189 114t-227 42q-148 -1 -276.5 -66.5t-214 -169.5t-134 -233.5t-47.5 -261.5zM655 369l9 424l-9 424h72q72 4 131.5 2 t106 -16t79 -39t49.5 -68.5t17 -104.5q0 -111 -63 -166.5t-209 -58.5l299 -397h-84l-283 399q-15 0 -51 4l2 -403h-66zM719 825q69 -6 120 -7t87 10t59 25t36 37.5t18 47t5 53.5q0 74 -25.5 110.5t-94.5 51t-205 8.5v-336z" />
<glyph unicode="&#xaf;" horiz-adv-x="546" d="M61 1333v80h424v-80h-424z" />
<glyph unicode="&#xb0;" horiz-adv-x="524" d="M104 1278q0 73 44 117.5t114 44.5q68 0 113 -45t45 -117q0 -73 -45 -119.5t-113 -46.5q-69 0 -113.5 46.5t-44.5 119.5zM156 1278q0 -53 28 -85t78 -32t78.5 32t28.5 85q0 52 -28.5 82.5t-78.5 30.5t-78 -30.5t-28 -82.5z" />
<glyph unicode="&#xb1;" horiz-adv-x="1095" d="M104 0v72h887v-72h-887zM104 518v72h408v352h72v-352h407v-72h-407v-352h-72v352h-408z" />
<glyph unicode="&#xb4;" horiz-adv-x="430" d="M55 1255l271 254l43 -43l-301 -225z" />
<glyph unicode="&#xb6;" horiz-adv-x="1308" d="M92 1049q0 61 15.5 123.5t50.5 124t84.5 109t124.5 76.5t165 29h685v-59l-218 4l13 -1974h-68l6 1974l-338 4l13 -1978h-74l12 1980h-37q-109 0 -192.5 -57.5t-125.5 -150.5t-42 -205q0 -291 147 -445l-37 -37q-84 78 -134 201.5t-50 280.5z" />
<glyph unicode="&#xb7;" horiz-adv-x="374" d="M123 608v221h129v-221h-129z" />
<glyph unicode="&#xb8;" horiz-adv-x="430" d="M55 -334l271 254l43 -43l-301 -225z" />
<glyph unicode="&#xba;" horiz-adv-x="843" d="M92 569v72h660v-72h-660zM92 1169q0 57 21 115.5t60 110t104 84t145 32.5t145 -32.5t104 -84t60 -110t21 -115.5q0 -104 -29 -190.5t-76 -141t-105.5 -84.5t-119.5 -30t-119.5 30t-105.5 84.5t-76 141t-29 190.5zM162 1169q0 -187 69 -290t191 -103t191 103t69 290 q0 129 -69 212t-191 83t-191 -83t-69 -212z" />
<glyph unicode="&#xbb;" horiz-adv-x="817" d="M104 782l31 35l264 -225l-264 -225l-26 39l182 186zM418 782l31 35l264 -225l-264 -225l-27 39l182 186z" />
<glyph unicode="&#xbc;" horiz-adv-x="1677" d="M123 1362l260 149l-18 -485l8 -455h-82l18 455l6 406l-168 -117zM418 37l606 1464l63 -26l-606 -1465zM885 254l491 704l-4 -653l135 2v-53l-135 4l6 -258h-71l6 258zM977 305h336l-6 492z" />
<glyph unicode="&#xbd;" horiz-adv-x="1677" d="M123 1362l260 149l-18 -485l8 -455h-82l18 455l6 406l-168 -117zM418 37l606 1464l63 -26l-606 -1465zM1026 0l283 385q7 9 29.5 40t32 44.5t28 42t27.5 48t20 46.5t15.5 53.5t4.5 53.5q0 41 -6.5 72.5t-23.5 60.5t-52 45t-86 16q-65 0 -101 -18t-81 -68l-47 27 q88 98 229 98q60 0 103.5 -14.5t68.5 -36.5t39.5 -55t18.5 -63t4 -68q0 -30 -10 -64.5t-22 -61t-36.5 -64t-39 -57t-44.5 -58t-39 -50.5l-202 -270l-23 -33l438 19v-70h-528z" />
<glyph unicode="&#xbe;" horiz-adv-x="1677" d="M14 662l45 36q66 -98 183 -98q221 0 221 236q0 121 -56.5 170t-175.5 49l-94 -8l-2 77l84 -4q205 7 205 185q0 86 -37 127t-127 41q-51 0 -81 -8t-45.5 -19t-51.5 -45l-39 37q63 73 217 73q109 0 166 -53t57 -153q0 -89 -43.5 -139t-122.5 -74q40 -5 75.5 -20t68 -43.5 t52 -78t19.5 -114.5q0 -138 -83 -208.5t-211 -70.5q-70 0 -129 27.5t-95 77.5zM418 37l606 1464l63 -26l-606 -1465zM885 254l491 704l-4 -653l135 2v-53l-135 4l6 -258h-71l6 258zM977 305h336l-6 492z" />
<glyph unicode="&#xbf;" horiz-adv-x="741" d="M154 -186q0 57 21.5 104.5t56.5 81.5t76.5 65.5t83.5 61.5t77 62t56.5 76t21.5 95q0 187 -148 187q-43 0 -77 -27l-17 37q41 27 94 27q103 0 159 -69t56 -173q0 -55 -21.5 -102.5t-56 -82t-76 -66t-83.5 -62t-76.5 -62.5t-56 -74.5t-21.5 -91.5q0 -114 54 -173.5 t155 -59.5q97 0 160 51l26 -41q-74 -47 -188 -47q-132 0 -204 71.5t-72 211.5zM362 795v221h130v-221h-130z" />
<glyph unicode="&#xc0;" horiz-adv-x="1392" d="M68 14l628 1516l629 -1516l-68 -26l-206 573h-709l-207 -573zM375 616h643l-322 756zM530 1804l43 43l271 -254l-13 -14z" />
<glyph unicode="&#xc1;" horiz-adv-x="1392" d="M68 14l628 1516l629 -1516l-68 -26l-206 573h-709l-207 -573zM375 616h643l-322 756zM543 1593l270 254l43 -43l-301 -225z" />
<glyph unicode="&#xc2;" horiz-adv-x="1392" d="M68 14l628 1516l629 -1516l-68 -26l-206 573h-709l-207 -573zM375 616h643l-322 756zM424 1593l270 254l271 -254l-15 -14l-254 193l-260 -193z" />
<glyph unicode="&#xc3;" horiz-adv-x="1392" d="M68 14l628 1516l629 -1516l-68 -26l-206 573h-709l-207 -573zM375 616h643l-322 756zM444 1595q0 83 48 120.5t110 37.5q36 0 61 -14t39 -33.5t27.5 -39.5t34.5 -34t51 -14q24 0 40.5 8.5t25.5 17.5t15 31t7 31t4 35h31q0 -83 -47.5 -119.5t-110.5 -36.5q-36 0 -61.5 14 t-40 33.5t-28 39.5t-34 34t-49.5 14q-20 0 -35 -4.5t-24.5 -16.5t-15 -20t-9.5 -28.5t-4.5 -26.5t-3.5 -29h-31z" />
<glyph unicode="&#xc4;" horiz-adv-x="1392" d="M68 14l628 1516l629 -1516l-68 -26l-206 573h-709l-207 -573zM375 616h643l-322 756zM485 1800h93l-13 -221h-67zM805 1800h92l-12 -221h-68z" />
<glyph unicode="&#xc5;" horiz-adv-x="1392" d="M68 14l628 1516l629 -1516l-68 -26l-206 573h-709l-207 -573zM375 616h643l-322 756zM565 1718q0 61 36.5 98t94.5 37t94.5 -37t36.5 -98t-37 -99t-94 -38t-94 38t-37 99zM612 1718q0 -44 22 -70t62 -26q41 0 62.5 26t21.5 70t-21 69t-63 25q-41 0 -62.5 -25t-21.5 -69z " />
<glyph unicode="&#xc6;" horiz-adv-x="1562" d="M68 14l628 1495h707v-67l-639 31v-691h577v-55h-577v-696l676 37v-68h-744l4 561h-358l-207 -573zM375 616h325l2 140l-4 620z" />
<glyph unicode="&#xc7;" horiz-adv-x="1183" d="M123 879q0 88 23.5 179.5t74 180t121 157t174.5 110.5t225 42q170 0 293 -63l-24 -62q-148 76 -269 76q-112 0 -213 -49.5t-173.5 -133t-115 -197.5t-42.5 -240q0 -235 75 -426.5t199 -297.5t270 -106q184 0 338 178l37 -43q-85 -94 -182 -145t-193 -51q-86 0 -173 38 t-167 115t-142 182t-99 249.5t-37 306.5zM553 -334l270 254l43 -43l-301 -225z" />
<glyph unicode="&#xc8;" horiz-adv-x="1191" d="M184 0l6 756l-6 753h848v-67l-780 31v-691h719v-55h-719v-696l817 37v-68h-885zM469 1804l43 43l270 -254l-12 -14z" />
<glyph unicode="&#xc9;" horiz-adv-x="1191" d="M184 0l6 756l-6 753h848v-67l-780 31v-691h719v-55h-719v-696l817 37v-68h-885zM487 1593l271 254l43 -43l-301 -225z" />
<glyph unicode="&#xca;" horiz-adv-x="1191" d="M184 0l6 756l-6 753h848v-67l-780 31v-691h719v-55h-719v-696l817 37v-68h-885zM332 1593l270 254l270 -254l-14 -14l-254 193l-260 -193z" />
<glyph unicode="&#xcb;" horiz-adv-x="1191" d="M184 0l6 756l-6 753h848v-67l-780 31v-691h719v-55h-719v-696l817 37v-68h-885zM418 1800h92l-12 -221h-68zM737 1800h92l-12 -221h-67z" />
<glyph unicode="&#xcc;" horiz-adv-x="460" d="M88 1804l43 43l270 -254l-12 -14zM184 0l19 754l-6 755h79l-18 -755l6 -754h-80z" />
<glyph unicode="&#xcd;" horiz-adv-x="460" d="M76 1593l270 254l43 -43l-301 -225zM184 0l19 754l-6 755h79l-18 -755l6 -754h-80z" />
<glyph unicode="&#xce;" horiz-adv-x="460" d="M-35 1593l271 254l270 -254l-14 -14l-254 193l-261 -193zM184 0l19 754l-6 755h79l-18 -755l6 -754h-80z" />
<glyph unicode="&#xcf;" horiz-adv-x="460" d="M31 1800h92l-12 -221h-68zM184 0l19 754l-6 755h79l-18 -755l6 -754h-80zM350 1800h92l-12 -221h-68z" />
<glyph unicode="&#xd0;" horiz-adv-x="1155" d="M70 737v66l129 -6l-15 712h213q119 0 223 -39.5t178 -105t128 -149.5t80 -174t26 -177q0 -204 -51.5 -370t-139.5 -272.5t-202 -164t-242 -57.5h-213l15 743zM252 49h145q167 0 295.5 107t197 292t68.5 416q0 112 -40.5 220t-112 193t-178.5 137t-230 52h-145v-669l293 6 v-66l-293 6v-694z" />
<glyph unicode="&#xd1;" horiz-adv-x="1519" d="M184 0v1528l1102 -1401l-37 1382h86v-1527l-1102 1413l37 -1395h-86zM512 1595q0 83 48 120.5t110 37.5q36 0 61 -14t39 -33.5t27.5 -39.5t34.5 -34t51 -14q24 0 40.5 8.5t25.5 17.5t15 31t7 31t4 35h31q0 -83 -47.5 -119.5t-110.5 -36.5q-36 0 -61.5 14t-40 33.5 t-28 39.5t-34 34t-49.5 14q-20 0 -35 -4.5t-24.5 -16.5t-15 -20t-9.5 -28.5t-4.5 -26.5t-3.5 -29h-31z" />
<glyph unicode="&#xd2;" d="M123 877q0 88 23.5 178t74 176t121 152t174.5 106.5t225 40.5t224 -40.5t174 -107t121.5 -152t74 -175.5t23.5 -178q0 -162 -36.5 -306.5t-98 -249t-141 -181t-167 -114.5t-174.5 -38t-175 38t-167.5 114.5t-141 181t-98 249t-36.5 306.5zM197 877q0 -166 44 -322 t117.5 -270.5t174 -184t208.5 -69.5q143 0 268.5 116.5t200 312t74.5 417.5q0 174 -68 311.5t-192 215t-283 77.5q-242 0 -393 -169.5t-151 -434.5zM567 1804l43 43l271 -254l-13 -14z" />
<glyph unicode="&#xd3;" d="M123 877q0 88 23.5 178t74 176t121 152t174.5 106.5t225 40.5t224 -40.5t174 -107t121.5 -152t74 -175.5t23.5 -178q0 -162 -36.5 -306.5t-98 -249t-141 -181t-167 -114.5t-174.5 -38t-175 38t-167.5 114.5t-141 181t-98 249t-36.5 306.5zM197 877q0 -166 44 -322 t117.5 -270.5t174 -184t208.5 -69.5q143 0 268.5 116.5t200 312t74.5 417.5q0 174 -68 311.5t-192 215t-283 77.5q-242 0 -393 -169.5t-151 -434.5zM567 1593l271 254l43 -43l-301 -225z" />
<glyph unicode="&#xd4;" d="M123 877q0 88 23.5 178t74 176t121 152t174.5 106.5t225 40.5t224 -40.5t174 -107t121.5 -152t74 -175.5t23.5 -178q0 -162 -36.5 -306.5t-98 -249t-141 -181t-167 -114.5t-174.5 -38t-175 38t-167.5 114.5t-141 181t-98 249t-36.5 306.5zM197 877q0 -166 44 -322 t117.5 -270.5t174 -184t208.5 -69.5q143 0 268.5 116.5t200 312t74.5 417.5q0 174 -68 311.5t-192 215t-283 77.5q-242 0 -393 -169.5t-151 -434.5zM469 1593l270 254l271 -254l-15 -14l-254 193l-260 -193z" />
<glyph unicode="&#xd5;" d="M123 877q0 88 23.5 178t74 176t121 152t174.5 106.5t225 40.5t224 -40.5t174 -107t121.5 -152t74 -175.5t23.5 -178q0 -162 -36.5 -306.5t-98 -249t-141 -181t-167 -114.5t-174.5 -38t-175 38t-167.5 114.5t-141 181t-98 249t-36.5 306.5zM197 877q0 -166 44 -322 t117.5 -270.5t174 -184t208.5 -69.5q143 0 268.5 116.5t200 312t74.5 417.5q0 174 -68 311.5t-192 215t-283 77.5q-242 0 -393 -169.5t-151 -434.5zM506 1595q0 83 48 120.5t110 37.5q36 0 61 -14t39 -33.5t27.5 -39.5t34.5 -34t51 -14q24 0 40.5 8.5t25.5 17.5t15 31t7 31 t4 35h30q0 -83 -47 -119.5t-110 -36.5q-36 0 -61.5 14t-40 33.5t-28 39.5t-34 34t-49.5 14q-20 0 -35 -4.5t-24.5 -16.5t-15 -20t-9.5 -28.5t-4.5 -26.5t-3.5 -29h-31z" />
<glyph unicode="&#xd6;" d="M123 877q0 88 23.5 178t74 176t121 152t174.5 106.5t225 40.5t224 -40.5t174 -107t121.5 -152t74 -175.5t23.5 -178q0 -162 -36.5 -306.5t-98 -249t-141 -181t-167 -114.5t-174.5 -38t-175 38t-167.5 114.5t-141 181t-98 249t-36.5 306.5zM197 877q0 -166 44 -322 t117.5 -270.5t174 -184t208.5 -69.5q143 0 268.5 116.5t200 312t74.5 417.5q0 174 -68 311.5t-192 215t-283 77.5q-242 0 -393 -169.5t-151 -434.5zM528 1800h93l-13 -221h-67zM848 1800h92l-12 -221h-68z" />
<glyph unicode="&#xd7;" horiz-adv-x="862" d="M92 211l295 289l-295 286l51 52l289 -295l287 295l51 -52l-295 -286l295 -289l-51 -51l-287 295l-289 -295z" />
<glyph unicode="&#xd8;" d="M123 877q0 88 23.5 178t74 176t121 152t174.5 106.5t225 40.5q227 0 389 -139l87 131l47 -29l-95 -139q92 -96 140.5 -224t48.5 -253q0 -162 -36.5 -306.5t-98 -249t-141 -181t-167 -114.5t-174.5 -38q-95 0 -190.5 45.5t-177.5 132.5l-121 -184l-47 28l133 197 q-100 120 -157.5 290t-57.5 380zM197 877q0 -175 47.5 -335.5t130.5 -279.5l368 545l357 539q-144 135 -359 135q-242 0 -393 -169.5t-151 -434.5zM408 217q149 -186 333 -186q143 0 268.5 116.5t200 312t74.5 417.5q0 264 -147 430l-359 -527z" />
<glyph unicode="&#xd9;" horiz-adv-x="1492" d="M166 791v718h80l-19 -718q-3 -146 25.5 -270.5t81 -212.5t124.5 -150t154.5 -91.5t171.5 -29.5q329 0 457 262v1210h68v-1509h-68v217q-162 -235 -457 -235q-90 0 -175.5 26t-167 87.5t-141.5 152.5t-97 231t-37 312zM586 1804l43 43l270 -254l-12 -14z" />
<glyph unicode="&#xda;" horiz-adv-x="1492" d="M166 791v718h80l-19 -718q-3 -146 25.5 -270.5t81 -212.5t124.5 -150t154.5 -91.5t171.5 -29.5q329 0 457 262v1210h68v-1509h-68v217q-162 -235 -457 -235q-90 0 -175.5 26t-167 87.5t-141.5 152.5t-97 231t-37 312zM616 1593l271 254l43 -43l-301 -225z" />
<glyph unicode="&#xdb;" horiz-adv-x="1492" d="M166 791v718h80l-19 -718q-3 -146 25.5 -270.5t81 -212.5t124.5 -150t154.5 -91.5t171.5 -29.5q329 0 457 262v1210h68v-1509h-68v217q-162 -235 -457 -235q-90 0 -175.5 26t-167 87.5t-141.5 152.5t-97 231t-37 312zM485 1593l271 254l270 -254l-14 -14l-254 193 l-260 -193z" />
<glyph unicode="&#xdc;" horiz-adv-x="1492" d="M166 791v718h80l-19 -718q-3 -146 25.5 -270.5t81 -212.5t124.5 -150t154.5 -91.5t171.5 -29.5q329 0 457 262v1210h68v-1509h-68v217q-162 -235 -457 -235q-90 0 -175.5 26t-167 87.5t-141.5 152.5t-97 231t-37 312zM541 1800h92l-12 -221h-68zM860 1800h92l-12 -221 h-68z" />
<glyph unicode="&#xdd;" horiz-adv-x="1136" d="M31 1509h82l458 -723l465 723h70l-512 -757l12 -752h-80l13 752zM444 1593l271 254l43 -43l-301 -225z" />
<glyph unicode="&#xde;" horiz-adv-x="1083" d="M184 0l13 805l-13 706h70v-348h55q159 13 285.5 5t214.5 -41t135 -115t47 -217q0 -128 -50 -213.5t-145 -128t-232.5 -55.5t-311.5 5l6 -403h-74zM252 457q184 -25 313 -14.5t210 59t118 121t37 172.5q0 118 -38.5 189.5t-120.5 107.5t-210.5 43t-308.5 -5v-673z" />
<glyph unicode="&#xdf;" horiz-adv-x="1024" d="M246 0l12 1010q-14 522 266 522q136 0 203.5 -67.5t67.5 -186.5q0 -49 -12 -85.5t-31 -59t-41.5 -41t-45.5 -37.5t-42 -42.5t-31 -62t-12 -90.5q0 -46 23.5 -90t61.5 -80t84 -72t92 -74t84 -77.5t61.5 -90.5t23.5 -106q0 -125 -84 -206.5t-217 -81.5q-145 0 -224 55 l19 41q30 -24 87 -38.5t116 -14.5q65 0 112.5 20.5t72.5 55t36.5 73.5t11.5 84q0 49 -23.5 94.5t-61.5 82.5t-83.5 73t-91 73.5t-83.5 77t-61.5 90t-23.5 105.5q0 58 12.5 101.5t33 69.5t44.5 46t48.5 38t45 38.5t33 54.5t12.5 80q0 95 -49 157t-162 62q-32 0 -60.5 -10 t-60.5 -43t-53 -86t-33 -148.5t-6 -222.5l13 -991h-84z" />
<glyph unicode="&#xe0;" horiz-adv-x="909" d="M80 246q0 69 39.5 119.5t99.5 76t133.5 45.5t138 30t116.5 27.5t67 41.5v133q7 80 -6 136.5t-40.5 85t-66 45t-82 15.5t-88.5 -4q-54 -6 -109.5 -28t-88.5 -49l-27 34q37 25 92 45.5t104 26.5q77 9 135 7.5t100 -19.5t69.5 -42.5t44 -62t23.5 -76.5t7 -88v-604 q0 -85 35.5 -111.5t93.5 -4.5l9 -19q-34 -12 -68 -13t-65.5 10.5t-51.5 47t-20 90.5q-117 -155 -283 -155q-60 0 -113.5 14.5t-98.5 44.5t-72 81.5t-27 119.5zM147 233q0 -77 63.5 -140.5t192.5 -63.5q24 0 45 2.5t37.5 5t34 10t28 11.5t25.5 16t22 17t21.5 21t18.5 20.5 t19.5 23.5t19.5 24v359q-21 -20 -71 -35t-107 -23.5t-120 -26.5t-113 -41.5t-83 -69.5t-33 -110zM283 1466l43 43l270 -254l-12 -14z" />
<glyph unicode="&#xe1;" horiz-adv-x="909" d="M80 246q0 69 39.5 119.5t99.5 76t133.5 45.5t138 30t116.5 27.5t67 41.5v133q7 80 -6 136.5t-40.5 85t-66 45t-82 15.5t-88.5 -4q-54 -6 -109.5 -28t-88.5 -49l-27 34q37 25 92 45.5t104 26.5q77 9 135 7.5t100 -19.5t69.5 -42.5t44 -62t23.5 -76.5t7 -88v-604 q0 -85 35.5 -111.5t93.5 -4.5l9 -19q-34 -12 -68 -13t-65.5 10.5t-51.5 47t-20 90.5q-117 -155 -283 -155q-60 0 -113.5 14.5t-98.5 44.5t-72 81.5t-27 119.5zM147 233q0 -77 63.5 -140.5t192.5 -63.5q24 0 45 2.5t37.5 5t34 10t28 11.5t25.5 16t22 17t21.5 21t18.5 20.5 t19.5 23.5t19.5 24v359q-21 -20 -71 -35t-107 -23.5t-120 -26.5t-113 -41.5t-83 -69.5t-33 -110zM326 1255l270 254l43 -43l-301 -225z" />
<glyph unicode="&#xe2;" horiz-adv-x="909" d="M80 246q0 69 39.5 119.5t99.5 76t133.5 45.5t138 30t116.5 27.5t67 41.5v133q7 80 -6 136.5t-40.5 85t-66 45t-82 15.5t-88.5 -4q-54 -6 -109.5 -28t-88.5 -49l-27 34q37 25 92 45.5t104 26.5q77 9 135 7.5t100 -19.5t69.5 -42.5t44 -62t23.5 -76.5t7 -88v-604 q0 -85 35.5 -111.5t93.5 -4.5l9 -19q-34 -12 -68 -13t-65.5 10.5t-51.5 47t-20 90.5q-117 -155 -283 -155q-60 0 -113.5 14.5t-98.5 44.5t-72 81.5t-27 119.5zM147 233q0 -77 63.5 -140.5t192.5 -63.5q24 0 45 2.5t37.5 5t34 10t28 11.5t25.5 16t22 17t21.5 21t18.5 20.5 t19.5 23.5t19.5 24v359q-21 -20 -71 -35t-107 -23.5t-120 -26.5t-113 -41.5t-83 -69.5t-33 -110zM178 1255l271 254l270 -254l-14 -14l-254 193l-261 -193z" />
<glyph unicode="&#xe3;" horiz-adv-x="909" d="M80 246q0 69 39.5 119.5t99.5 76t133.5 45.5t138 30t116.5 27.5t67 41.5v133q7 80 -6 136.5t-40.5 85t-66 45t-82 15.5t-88.5 -4q-54 -6 -109.5 -28t-88.5 -49l-27 34q37 25 92 45.5t104 26.5q77 9 135 7.5t100 -19.5t69.5 -42.5t44 -62t23.5 -76.5t7 -88v-604 q0 -85 35.5 -111.5t93.5 -4.5l9 -19q-34 -12 -68 -13t-65.5 10.5t-51.5 47t-20 90.5q-117 -155 -283 -155q-60 0 -113.5 14.5t-98.5 44.5t-72 81.5t-27 119.5zM147 233q0 -77 63.5 -140.5t192.5 -63.5q24 0 45 2.5t37.5 5t34 10t28 11.5t25.5 16t22 17t21.5 21t18.5 20.5 t19.5 23.5t19.5 24v359q-21 -20 -71 -35t-107 -23.5t-120 -26.5t-113 -41.5t-83 -69.5t-33 -110zM201 1292q0 44 14.5 76.5t39 49t50 24.5t53.5 8q36 0 61 -14t39 -34t27.5 -39.5t34.5 -33.5t51 -14q24 0 41 8.5t25.5 18t14.5 30.5t7.5 31t4.5 35h30q0 -83 -47 -119.5 t-110 -36.5q-36 0 -61.5 14t-40 34t-28 39.5t-34 33.5t-49.5 14q-24 0 -41 -9t-25.5 -18.5t-14.5 -31t-7.5 -31.5t-4.5 -35h-30z" />
<glyph unicode="&#xe4;" horiz-adv-x="909" d="M80 246q0 69 39.5 119.5t99.5 76t133.5 45.5t138 30t116.5 27.5t67 41.5v133q7 80 -6 136.5t-40.5 85t-66 45t-82 15.5t-88.5 -4q-54 -6 -109.5 -28t-88.5 -49l-27 34q37 25 92 45.5t104 26.5q77 9 135 7.5t100 -19.5t69.5 -42.5t44 -62t23.5 -76.5t7 -88v-604 q0 -85 35.5 -111.5t93.5 -4.5l9 -19q-34 -12 -68 -13t-65.5 10.5t-51.5 47t-20 90.5q-117 -155 -283 -155q-60 0 -113.5 14.5t-98.5 44.5t-72 81.5t-27 119.5zM147 233q0 -77 63.5 -140.5t192.5 -63.5q24 0 45 2.5t37.5 5t34 10t28 11.5t25.5 16t22 17t21.5 21t18.5 20.5 t19.5 23.5t19.5 24v359q-21 -20 -71 -35t-107 -23.5t-120 -26.5t-113 -41.5t-83 -69.5t-33 -110zM258 1481h92l-12 -221h-68zM578 1481h92l-13 -221h-67z" />
<glyph unicode="&#xe5;" horiz-adv-x="909" d="M80 246q0 69 39.5 119.5t99.5 76t133.5 45.5t138 30t116.5 27.5t67 41.5v133q7 80 -6 136.5t-40.5 85t-66 45t-82 15.5t-88.5 -4q-54 -6 -109.5 -28t-88.5 -49l-27 34q37 25 92 45.5t104 26.5q77 9 135 7.5t100 -19.5t69.5 -42.5t44 -62t23.5 -76.5t7 -88v-604 q0 -85 35.5 -111.5t93.5 -4.5l9 -19q-34 -12 -68 -13t-65.5 10.5t-51.5 47t-20 90.5q-117 -155 -283 -155q-60 0 -113.5 14.5t-98.5 44.5t-72 81.5t-27 119.5zM147 233q0 -77 63.5 -140.5t192.5 -63.5q24 0 45 2.5t37.5 5t34 10t28 11.5t25.5 16t22 17t21.5 21t18.5 20.5 t19.5 23.5t19.5 24v359q-21 -20 -71 -35t-107 -23.5t-120 -26.5t-113 -41.5t-83 -69.5t-33 -110zM317 1366q0 61 37 98t95 37t94.5 -37t36.5 -98t-37 -99t-94 -38q-58 0 -95 38t-37 99zM365 1366q0 -44 22 -70t62 -26q41 0 62 26t21 70q0 94 -83 94q-41 0 -62.5 -25 t-21.5 -69z" />
<glyph unicode="&#xe6;" horiz-adv-x="1558" d="M80 246q0 69 39.5 119.5t99.5 76t133.5 45.5t138 30t116.5 27.5t67 41.5v133q7 80 -6 136.5t-40.5 85t-66 45t-82 15.5t-88.5 -4q-54 -6 -109.5 -28t-88.5 -49l-27 34q37 25 92 45.5t104 26.5q100 12 168 4.5t112.5 -39.5t66 -74t28.5 -100q51 98 139 157.5t207 59.5 q78 0 142.5 -29t107 -75.5t72.5 -108t44 -123t17 -123.5v-61h-714q11 -233 97.5 -361.5t252.5 -127.5q28 0 49.5 3.5t53.5 16t69 42.5t76 77l47 -47q-126 -135 -289 -135q-118 0 -211 59.5t-149 173.5q-86 -127 -172 -178t-185 -51q-60 0 -113.5 14.5t-98.5 44.5t-72 81.5 t-27 119.5zM147 233q0 -77 63.5 -140.5t192.5 -63.5q55 0 107 21.5t93.5 58t71 71t54.5 72.5q-49 119 -55 285v2q-21 -20 -71 -35t-107 -23.5t-120 -26.5t-113 -41.5t-83 -69.5t-33 -110zM754 569l639 6q-2 84 -20.5 157t-53.5 134t-94 96t-135 35q-81 0 -146 -35.5 t-105.5 -96t-62 -136t-22.5 -160.5z" />
<glyph unicode="&#xe7;" horiz-adv-x="884" d="M92 571q0 61 15.5 124t50.5 124t84.5 108.5t124.5 77t165 29.5q49 0 107 -12.5t98 -30.5l-28 -53q-121 59 -183 59q-108 0 -192 -61t-126 -157t-42 -208q0 -250 99 -398t267 -148q28 0 49.5 3.5t53.5 16t69 42.5t76 77l43 -39q-134 -143 -284 -143q-81 0 -160 39.5 t-143.5 111.5t-104 186.5t-39.5 251.5zM338 -334l270 254l43 -43l-301 -225z" />
<glyph unicode="&#xe8;" horiz-adv-x="1013" d="M92 571q0 76 29 156t81 149t135.5 113.5t182.5 44.5q96 0 174.5 -43.5t125.5 -113t73 -147t29 -155.5v-61h-752q11 -229 106 -359.5t263 -129.5q28 0 52 4t60 16t75.5 42.5t78.5 76.5l47 -47q-63 -67 -145 -101t-162 -34q-195 0 -324 156.5t-129 432.5zM172 569l676 6 q-3 112 -38 205t-109 155t-175 62q-107 0 -189 -61.5t-123 -157.5t-42 -209zM344 1466l43 43l270 -254l-12 -14z" />
<glyph unicode="&#xe9;" horiz-adv-x="1013" d="M92 571q0 76 29 156t81 149t135.5 113.5t182.5 44.5q96 0 174.5 -43.5t125.5 -113t73 -147t29 -155.5v-61h-752q11 -229 106 -359.5t263 -129.5q28 0 52 4t60 16t75.5 42.5t78.5 76.5l47 -47q-63 -67 -145 -101t-162 -34q-195 0 -324 156.5t-129 432.5zM172 569l676 6 q-3 112 -38 205t-109 155t-175 62q-107 0 -189 -61.5t-123 -157.5t-42 -209zM344 1255l270 254l43 -43l-301 -225z" />
<glyph unicode="&#xea;" horiz-adv-x="1013" d="M92 571q0 76 29 156t81 149t135.5 113.5t182.5 44.5q96 0 174.5 -43.5t125.5 -113t73 -147t29 -155.5v-61h-752q11 -229 106 -359.5t263 -129.5q28 0 52 4t60 16t75.5 42.5t78.5 76.5l47 -47q-63 -67 -145 -101t-162 -34q-195 0 -324 156.5t-129 432.5zM172 569l676 6 q-3 112 -38 205t-109 155t-175 62q-107 0 -189 -61.5t-123 -157.5t-42 -209zM248 1255l270 254l270 -254l-14 -14l-254 193l-260 -193z" />
<glyph unicode="&#xeb;" horiz-adv-x="1013" d="M92 571q0 76 29 156t81 149t135.5 113.5t182.5 44.5q96 0 174.5 -43.5t125.5 -113t73 -147t29 -155.5v-61h-752q11 -229 106 -359.5t263 -129.5q28 0 52 4t60 16t75.5 42.5t78.5 76.5l47 -47q-63 -67 -145 -101t-162 -34q-195 0 -324 156.5t-129 432.5zM172 569l676 6 q-3 112 -38 205t-109 155t-175 62q-107 0 -189 -61.5t-123 -157.5t-42 -209zM301 1481h92l-12 -221h-68zM621 1481h92l-13 -221h-67z" />
<glyph unicode="&#xec;" horiz-adv-x="466" d="M74 1466l43 43l270 -254l-12 -14zM184 0l13 508l-7 508h74l-12 -508l6 -508h-74z" />
<glyph unicode="&#xed;" horiz-adv-x="466" d="M80 1255l270 254l43 -43l-301 -225zM184 0l13 508l-7 508h74l-12 -508l6 -508h-74z" />
<glyph unicode="&#xee;" horiz-adv-x="466" d="M-41 1255l270 254l271 -254l-15 -14l-254 193l-260 -193zM184 0l13 508l-7 508h74l-12 -508l6 -508h-74z" />
<glyph unicode="&#xef;" horiz-adv-x="466" d="M25 1481h92l-13 -221h-67zM184 0l13 508l-7 508h74l-12 -508l6 -508h-74zM344 1481h92l-12 -221h-68z" />
<glyph unicode="&#xf0;" horiz-adv-x="1062" d="M92 571q0 61 16.5 124t52.5 124t86.5 108.5t124.5 77t160 29.5q93 0 181 -37.5t129 -91.5q-12 66 -70.5 173.5t-161.5 228.5l-323 -101l-19 49l318 84q-75 84 -193 172h82q72 -49 164 -151l217 70l18 -50l-202 -55q57 -66 105.5 -141t94.5 -170.5t72.5 -210t26.5 -232.5 q0 -137 -38.5 -251.5t-102 -186.5t-141 -111.5t-157.5 -39.5q-65 0 -128 24t-119 74t-99 119t-68.5 165t-25.5 207zM160 571q0 -247 101 -390.5t271 -143.5q169 0 270 143.5t101 390.5q0 170 -104 289t-267 119q-165 0 -268.5 -119t-103.5 -289z" />
<glyph unicode="&#xf1;" horiz-adv-x="1136" d="M184 0v1016h68l-6 -254q23 56 46 96t61.5 83.5t94.5 67t127 23.5q86 0 154.5 -27.5t112.5 -73t73.5 -107t42 -125.5t13.5 -134l12 -565h-80v565q0 418 -334 418q-75 0 -137 -38t-101 -100.5t-60 -141t-19 -162.5l12 -541h-80zM317 1292q0 83 48 120.5t110 37.5 q36 0 61 -14t39 -34t27.5 -39.5t34.5 -33.5t51 -14q24 0 40.5 8.5t25.5 17.5t15 31t7 31t4 35h31q0 -83 -47.5 -119.5t-110.5 -36.5q-36 0 -61.5 14t-40 34t-28 39.5t-34 33.5t-49.5 14q-20 0 -35 -4.5t-24.5 -16.5t-15 -20t-9.5 -28.5t-4.5 -26.5t-3.5 -29h-31z" />
<glyph unicode="&#xf2;" horiz-adv-x="1062" d="M92 578q0 61 16.5 123.5t52.5 122.5t86.5 106.5t124.5 75t160 28.5t159.5 -28.5t124 -75t86.5 -106.5t52.5 -122.5t16.5 -123.5q0 -138 -38.5 -253t-102 -188.5t-141 -114t-157.5 -40.5q-81 0 -159 40.5t-141 114t-101.5 188.5t-38.5 253zM160 578q0 -248 101.5 -394.5 t270.5 -146.5q168 0 269.5 146.5t101.5 394.5q0 169 -103.5 285t-267.5 116q-165 0 -268.5 -115.5t-103.5 -285.5zM326 1466l43 43l270 -254l-12 -14z" />
<glyph unicode="&#xf3;" horiz-adv-x="1062" d="M92 578q0 61 16.5 123.5t52.5 122.5t86.5 106.5t124.5 75t160 28.5t159.5 -28.5t124 -75t86.5 -106.5t52.5 -122.5t16.5 -123.5q0 -138 -38.5 -253t-102 -188.5t-141 -114t-157.5 -40.5q-81 0 -159 40.5t-141 114t-101.5 188.5t-38.5 253zM160 578q0 -248 101.5 -394.5 t270.5 -146.5q168 0 269.5 146.5t101.5 394.5q0 169 -103.5 285t-267.5 116q-165 0 -268.5 -115.5t-103.5 -285.5zM362 1255l271 254l43 -43l-301 -225z" />
<glyph unicode="&#xf4;" horiz-adv-x="1062" d="M92 578q0 61 16.5 123.5t52.5 122.5t86.5 106.5t124.5 75t160 28.5t159.5 -28.5t124 -75t86.5 -106.5t52.5 -122.5t16.5 -123.5q0 -138 -38.5 -253t-102 -188.5t-141 -114t-157.5 -40.5q-81 0 -159 40.5t-141 114t-101.5 188.5t-38.5 253zM160 578q0 -248 101.5 -394.5 t270.5 -146.5q168 0 269.5 146.5t101.5 394.5q0 169 -103.5 285t-267.5 116q-165 0 -268.5 -115.5t-103.5 -285.5zM260 1255l270 254l271 -254l-15 -14l-254 193l-260 -193z" />
<glyph unicode="&#xf5;" horiz-adv-x="1062" d="M92 578q0 61 16.5 123.5t52.5 122.5t86.5 106.5t124.5 75t160 28.5t159.5 -28.5t124 -75t86.5 -106.5t52.5 -122.5t16.5 -123.5q0 -138 -38.5 -253t-102 -188.5t-141 -114t-157.5 -40.5q-81 0 -159 40.5t-141 114t-101.5 188.5t-38.5 253zM160 578q0 -248 101.5 -394.5 t270.5 -146.5q168 0 269.5 146.5t101.5 394.5q0 169 -103.5 285t-267.5 116q-165 0 -268.5 -115.5t-103.5 -285.5zM274 1292q0 83 48 120.5t110 37.5q36 0 61 -14t39 -34t27.5 -39.5t34.5 -33.5t51 -14q24 0 40.5 8.5t25.5 17.5t15 31t7 31t4 35h31q0 -83 -47.5 -119.5 t-110.5 -36.5q-36 0 -61.5 14t-40 34t-28 39.5t-34 33.5t-49.5 14q-20 0 -35 -4.5t-24.5 -16.5t-15 -20t-9.5 -28.5t-4.5 -26.5t-3.5 -29h-31z" />
<glyph unicode="&#xf6;" horiz-adv-x="1062" d="M92 578q0 61 16.5 123.5t52.5 122.5t86.5 106.5t124.5 75t160 28.5t159.5 -28.5t124 -75t86.5 -106.5t52.5 -122.5t16.5 -123.5q0 -138 -38.5 -253t-102 -188.5t-141 -114t-157.5 -40.5q-81 0 -159 40.5t-141 114t-101.5 188.5t-38.5 253zM160 578q0 -248 101.5 -394.5 t270.5 -146.5q168 0 269.5 146.5t101.5 394.5q0 169 -103.5 285t-267.5 116q-165 0 -268.5 -115.5t-103.5 -285.5zM326 1481h92l-12 -221h-68zM645 1481h92l-12 -221h-68z" />
<glyph unicode="&#xf7;" horiz-adv-x="1132" d="M123 463v72h887v-72h-887zM500 55v221h129v-221h-129zM500 721v221h129v-221h-129z" />
<glyph unicode="&#xf8;" horiz-adv-x="1024" d="M92 578q0 61 16.5 123.5t52.5 122.5t86.5 106.5t124.5 75t160 28.5q150 0 263 -88l63 96l47 -30l-69 -101q65 -68 100 -157.5t35 -175.5q0 -138 -38.5 -253t-102 -188.5t-141 -114t-157.5 -40.5q-138 0 -249 102l-74 -111l-47 31l82 119q-152 172 -152 455zM160 578 q0 -266 112 -412l250 364l242 367q-98 82 -232 82q-165 0 -268.5 -115.5t-103.5 -285.5zM309 127q90 -90 223 -90q168 0 269.5 146.5t101.5 394.5q0 171 -102 282l-242 -352z" />
<glyph unicode="&#xf9;" horiz-adv-x="1204" d="M154 543v473h73l-6 -473q0 -242 92 -374t267 -132q75 0 140.5 25.5t118 76t83 134t30.5 190.5l-12 553h80v-1016h-37l-25 227q-38 -84 -102 -141t-133 -80.5t-143 -23.5q-69 0 -130.5 19.5t-116 63.5t-94 108t-62.5 159t-23 211zM381 1466l43 43l270 -254l-12 -14z" />
<glyph unicode="&#xfa;" horiz-adv-x="1204" d="M154 543v473h73l-6 -473q0 -242 92 -374t267 -132q75 0 140.5 25.5t118 76t83 134t30.5 190.5l-12 553h80v-1016h-37l-25 227q-38 -84 -102 -141t-133 -80.5t-143 -23.5q-69 0 -130.5 19.5t-116 63.5t-94 108t-62.5 159t-23 211zM436 1255l271 254l43 -43l-301 -225z" />
<glyph unicode="&#xfb;" horiz-adv-x="1204" d="M154 543v473h73l-6 -473q0 -242 92 -374t267 -132q75 0 140.5 25.5t118 76t83 134t30.5 190.5l-12 553h80v-1016h-37l-25 227q-38 -84 -102 -141t-133 -80.5t-143 -23.5q-69 0 -130.5 19.5t-116 63.5t-94 108t-62.5 159t-23 211zM309 1255l271 254l270 -254l-14 -14 l-254 193l-260 -193z" />
<glyph unicode="&#xfc;" horiz-adv-x="1204" d="M154 543v473h73l-6 -473q0 -242 92 -374t267 -132q75 0 140.5 25.5t118 76t83 134t30.5 190.5l-12 553h80v-1016h-37l-25 227q-38 -84 -102 -141t-133 -80.5t-143 -23.5q-69 0 -130.5 19.5t-116 63.5t-94 108t-62.5 159t-23 211zM381 1481h92l-12 -221h-68zM700 1481h93 l-13 -221h-67z" />
<glyph unicode="&#xfd;" horiz-adv-x="976" d="M74 1001l69 27l361 -932l346 932l53 -20l-381 -988l-203 -538l-65 26l221 525zM362 1255l271 254l43 -43l-301 -225z" />
<glyph unicode="&#xfe;" horiz-adv-x="1155" d="M184 -518v2048h74l-6 -748q48 103 147.5 177.5t225.5 74.5q86 0 159.5 -30.5t123.5 -79.5t86 -111.5t52.5 -126.5t16.5 -125q0 -137 -38.5 -250t-101.5 -183t-140 -108t-158 -38q-112 0 -217 69t-162 195l18 -764h-80zM246 475q0 -103 31.5 -187.5t85 -138.5t121 -83 t141.5 -29q154 0 262 152t108 372q0 177 -104.5 297.5t-265.5 120.5q-156 0 -267.5 -121t-111.5 -291v-92z" />
<glyph unicode="&#xff;" horiz-adv-x="976" d="M74 1001l69 27l361 -932l346 932l53 -20l-381 -988l-203 -538l-65 26l221 525zM283 1481h92l-13 -221h-67zM602 1481h92l-12 -221h-68z" />
<glyph unicode="&#x178;" horiz-adv-x="1136" d="M31 1509h82l458 -723l465 723h70l-512 -757l12 -752h-80l13 752zM369 1800h92l-12 -221h-68zM688 1800h92l-12 -221h-68z" />
<glyph unicode="&#x2c6;" horiz-adv-x="663" d="M61 1255l271 254l270 -254l-14 -14l-254 193l-260 -193z" />
<glyph unicode="&#x2dc;" horiz-adv-x="616" d="M61 1292q0 83 48 120.5t110 37.5q36 0 61 -14t39 -34t27.5 -39.5t34.5 -33.5t51 -14q24 0 40.5 8.5t25.5 17.5t15 31t7 31t4 35h31q0 -83 -47.5 -119.5t-110.5 -36.5q-36 0 -61.5 14t-40 34t-28 39.5t-34 33.5t-49.5 14q-20 0 -35 -4.5t-24.5 -16.5t-15 -20t-9.5 -28.5 t-4.5 -26.5t-3.5 -29h-31z" />
<glyph unicode="&#x2000;" horiz-adv-x="926" />
<glyph unicode="&#x2001;" horiz-adv-x="1853" />
<glyph unicode="&#x2002;" horiz-adv-x="926" />
<glyph unicode="&#x2003;" horiz-adv-x="1853" />
<glyph unicode="&#x2004;" horiz-adv-x="617" />
<glyph unicode="&#x2005;" horiz-adv-x="463" />
<glyph unicode="&#x2006;" horiz-adv-x="308" />
<glyph unicode="&#x2007;" horiz-adv-x="308" />
<glyph unicode="&#x2008;" horiz-adv-x="231" />
<glyph unicode="&#x2009;" horiz-adv-x="370" />
<glyph unicode="&#x200a;" horiz-adv-x="102" />
<glyph unicode="&#x2010;" horiz-adv-x="577" d="M104 455v92h369v-92h-369z" />
<glyph unicode="&#x2011;" horiz-adv-x="577" d="M104 455v92h369v-92h-369z" />
<glyph unicode="&#x2012;" horiz-adv-x="577" d="M104 455v92h369v-92h-369z" />
<glyph unicode="&#x2013;" horiz-adv-x="991" d="M104 465v72h783v-72h-783z" />
<glyph unicode="&#x2014;" horiz-adv-x="1622" d="M104 465v72h1414v-72h-1414z" />
<glyph unicode="&#x2018;" horiz-adv-x="425" d="M55 1495l49 35l261 -344l-93 -60z" />
<glyph unicode="&#x2019;" horiz-adv-x="376" d="M55 1161l217 369l93 -60l-261 -344z" />
<glyph unicode="&#x201c;" horiz-adv-x="712" d="M55 1495l49 35l261 -344l-93 -60zM342 1495l49 35l260 -344l-92 -60z" />
<glyph unicode="&#x201d;" horiz-adv-x="675" d="M55 1161l217 369l93 -60l-261 -344zM342 1161l217 369l92 -60l-260 -344z" />
<glyph unicode="&#x2026;" horiz-adv-x="1345" d="M141 0v221h129v-221h-129zM608 0v221h129v-221h-129zM1075 0v221h129v-221h-129z" />
<glyph unicode="&#x202f;" horiz-adv-x="370" />
<glyph unicode="&#x205f;" horiz-adv-x="463" />
<glyph unicode="&#x25fc;" horiz-adv-x="1024" d="M0 0v1024h1024v-1024h-1024z" />
</font>
</defs>
</svg>
